<svg xmlns="http://www.w3.org/2000/svg" width="256" height="255" viewBox="0 0 256 255" version="1.1">
  <path d="M 143 147.927 C 143 148.368, 145.137 149.538, 147.750 150.528 C 158.407 154.564, 163.146 159.189, 161.139 163.594 C 156.981 172.720, 123.108 184.089, 76.500 192.003 C 69.350 193.217, 62.825 194.578, 62 195.028 C 61.175 195.478, 54.358 199.706, 46.851 204.423 C 39.344 209.140, 32.873 213, 32.470 213 C 31.067 213, 5.658 229.386, 6.583 229.694 C 7.095 229.865, 12.461 228.869, 18.507 227.481 C 24.553 226.094, 43.225 222.039, 60 218.470 C 91.110 211.853, 96.319 210.678, 113 206.517 C 140.108 199.755, 170.434 189, 183.796 181.409 C 191.531 177.015, 197.621 171.359, 198.534 167.720 C 200.800 158.692, 186.293 153.102, 146.250 147.574 C 144.463 147.328, 143 147.486, 143 147.927" stroke="none" fill="#00aff0" fill-rule="evenodd"/>
  <path d="M 228 91.078 C 163.477 101.164, 125.849 111.020, 119.099 119.602 C 116.295 123.165, 116.443 124.353, 120.067 127.403 C 125.252 131.766, 140.502 135.443, 164 137.997 C 188.307 140.638, 208.595 145.318, 220.626 151.060 C 227.695 154.434, 234 160.790, 234 164.543 C 234 173.910, 219.730 185.784, 194.134 197.714 C 172.772 207.671, 131.838 222.716, 93.610 234.661 C 81.725 238.375, 72 241.729, 72 242.114 C 72 243.175, 85.537 248.539, 94 250.832 C 105.077 253.833, 114.479 255, 127.572 255 C 158.062 255, 185.236 245.282, 209.500 225.703 C 222.613 215.122, 233.285 201.702, 241.605 185.335 C 255.870 157.270, 259.272 128.202, 251.943 96.986 C 250.304 90.007, 249.461 88.021, 248.167 88.093 C 247.250 88.144, 238.175 89.488, 228 91.078" stroke="none" fill="#9bb344" fill-rule="evenodd"/>
  <path d="M 102 1.954 C 76.278 7.443, 55.065 19.092, 36.920 37.692 C 25.776 49.117, 19.725 57.356, 13.451 69.650 C 4.282 87.616, 0.003 106.199, 0.013 128 C 0.027 158.501, 10.149 186.077, 30.265 210.415 C 32.674 213.329, 32.674 213.329, 46.856 204.484 C 54.656 199.619, 60.692 195.298, 60.269 194.883 C 59.846 194.468, 48.963 190.108, 36.084 185.194 C 12.668 176.260, 12.668 176.260, 25.584 175.585 C 75.423 172.984, 117 162.666, 117 152.898 C 117 148.835, 112.716 147.097, 90 141.944 C 71.567 137.762, 60.074 130.380, 61.431 123.595 C 63.786 111.818, 91.698 101.029, 136.500 94.579 C 156.094 91.757, 182.853 89.953, 213 89.419 C 229.225 89.132, 244.004 88.667, 245.843 88.386 C 248.894 87.919, 249.128 87.640, 248.524 85.187 C 246.941 78.758, 236.597 59.603, 229.760 50.441 C 221.477 39.340, 212.487 30.514, 201.715 22.909 C 187.299 12.731, 167.497 4.402, 150.672 1.441 C 138.857 -0.638, 112.866 -0.364, 102 1.954 M 124.133 45.238 C 121.732 54.732, 119.399 63.175, 118.951 64 C 118.003 65.741, 118.206 66.166, 115.144 56 C 113.187 49.500, 113.187 49.500, 113.058 58.500 C 112.928 67.500, 112.928 67.500, 110.460 64.500 C 109.102 62.850, 103.966 55.875, 99.046 49 C 89.995 36.350, 86.463 31.679, 87.326 33.500 C 89.741 38.597, 101.979 70.564, 101.762 71.213 C 101.607 71.678, 98.618 69.976, 95.120 67.430 C 88.283 62.455, 88.170 62.867, 94.347 70.255 C 96.533 72.871, 98.002 75.331, 97.611 75.722 C 97.220 76.113, 88.512 73.646, 78.260 70.240 C 68.008 66.834, 59.471 64.196, 59.288 64.379 C 59.106 64.561, 64.603 68.208, 71.505 72.483 C 78.406 76.758, 85.954 81.661, 88.277 83.378 C 92.500 86.500, 92.500 86.500, 84.500 87 C 76.500 87.500, 76.500 87.500, 83.794 89.368 C 87.844 90.406, 90.929 91.712, 90.731 92.306 C 90.535 92.894, 82.078 96.195, 71.938 99.641 C 53.500 105.908, 53.500 105.908, 64 105.371 C 71.594 104.983, 76.171 104.190, 80.538 102.506 C 97.850 95.832, 130.306 89.593, 161 87.041 C 168.584 86.411, 174.884 85.245, 179.500 83.617 C 187.730 80.715, 186.589 80.557, 168.393 82.077 C 161.302 82.670, 153.700 83.007, 151.500 82.827 C 147.500 82.500, 147.500 82.500, 153.265 78.598 C 156.436 76.453, 158.899 74.566, 158.740 74.406 C 158.580 74.247, 155.187 75.279, 151.200 76.700 C 147.213 78.121, 143.698 79.032, 143.390 78.724 C 143.082 78.416, 148.182 71.039, 154.724 62.332 C 161.266 53.624, 166.993 45.877, 167.451 45.116 C 167.909 44.355, 162.932 48.185, 156.392 53.629 C 141.434 66.077, 137.594 69, 136.200 69 C 135.523 69, 136.048 66.453, 137.545 62.477 C 138.895 58.890, 140 55.632, 140 55.238 C 140 54.844, 137.966 57.554, 135.479 61.261 C 132.992 64.967, 130.527 68, 130 68 C 129.430 68, 128.932 59.893, 128.771 47.988 C 128.500 27.976, 128.500 27.976, 124.133 45.238" stroke="none" fill="#0a82b6" fill-rule="evenodd"/>
</svg>